<svg width="1200" height="720" viewBox="0 0 1200 720" xmlns="http://www.w3.org/2000/svg">
  <defs>
    <linearGradient id="bg" x1="0" x2="1" y1="0" y2="1">
      <stop offset="0" stop-color="#eff8ff"/>
      <stop offset="0.55" stop-color="#ffffff"/>
      <stop offset="1" stop-color="#eafdf3"/>
    </linearGradient>
    <linearGradient id="blue" x1="0" x2="1">
      <stop offset="0" stop-color="#2563eb"/>
      <stop offset="1" stop-color="#0ea5e9"/>
    </linearGradient>
    <linearGradient id="green" x1="0" x2="1">
      <stop offset="0" stop-color="#16a34a"/>
      <stop offset="1" stop-color="#0f766e"/>
    </linearGradient>
    <filter id="shadow" x="-20%" y="-20%" width="140%" height="140%">
      <feDropShadow dx="0" dy="18" stdDeviation="20" flood-color="#09285a" flood-opacity="0.18"/>
    </filter>
  </defs>
  <rect width="1200" height="720" rx="42" fill="url(#bg)"/>
  <rect x="54" y="54" width="1092" height="612" rx="34" fill="#ffffff" stroke="#d8e7ff" filter="url(#shadow)"/>

  <g transform="translate(95,88)">
    <rect x="0" y="0" width="270" height="46" rx="23" fill="#07152f"/>
    <text x="135" y="30" text-anchor="middle" font-family="Arial" font-size="20" font-weight="900" fill="#fff">SmartChessMath Live V1.0</text>
    <text x="0" y="112" font-family="Arial" font-size="56" font-weight="900" fill="#07152f">The 21st Century</text>
    <text x="0" y="176" font-family="Arial" font-size="56" font-weight="900" fill="#07152f">Learning Leap</text>
    <text x="0" y="226" font-family="Arial" font-size="25" font-weight="800" fill="#0b2d5f">A live classroom platform where chess,</text>
    <text x="0" y="260" font-family="Arial" font-size="25" font-weight="800" fill="#0b2d5f">mathematics, logic, rankings, reports,</text>
    <text x="0" y="294" font-family="Arial" font-size="25" font-weight="800" fill="#0b2d5f">and certificates work together.</text>

    <g transform="translate(0,345)">
      <rect x="0" y="0" width="198" height="52" rx="26" fill="#e8f5ff" stroke="#b8ddff"/>
      <text x="99" y="34" text-anchor="middle" font-family="Arial" font-size="18" font-weight="900" fill="#0b2d5f">🎓 Live Classroom</text>
      <rect x="214" y="0" width="205" height="52" rx="26" fill="#eafbf1" stroke="#b9f1ce"/>
      <text x="316" y="34" text-anchor="middle" font-family="Arial" font-size="18" font-weight="900" fill="#0f5132">📊 Reports</text>
      <rect x="435" y="0" width="220" height="52" rx="26" fill="#fff7d6" stroke="#fde68a"/>
      <text x="545" y="34" text-anchor="middle" font-family="Arial" font-size="18" font-weight="900" fill="#92400e">🏆 Certificates</text>
    </g>

    <rect x="0" y="438" width="380" height="64" rx="18" fill="url(#blue)"/>
    <text x="190" y="479" text-anchor="middle" font-family="Arial" font-size="22" font-weight="900" fill="#fff">Enter SmartChessMath Live →</text>
  </g>

  <g transform="translate(655,96)">
    <rect x="0" y="0" width="415" height="282" rx="24" fill="#07152f" filter="url(#shadow)"/>
    <rect x="22" y="30" width="260" height="210" rx="16" fill="#fff"/>
    <text x="42" y="60" font-family="Arial" font-size="17" font-weight="900" fill="#0b2d5f">Teacher explains live</text>
    <rect x="42" y="80" width="205" height="145" rx="8" fill="#dbeafe" stroke="#0b5c38" stroke-width="3"/>
    <g>
      <rect x="42" y="80" width="25.625" height="18.125" fill="#dbeafe"/><rect x="67.625" y="80" width="25.625" height="18.125" fill="#3b82f6"/><rect x="93.25" y="80" width="25.625" height="18.125" fill="#dbeafe"/><rect x="118.875" y="80" width="25.625" height="18.125" fill="#3b82f6"/>
      <rect x="144.5" y="80" width="25.625" height="18.125" fill="#dbeafe"/><rect x="170.125" y="80" width="25.625" height="18.125" fill="#3b82f6"/><rect x="195.75" y="80" width="25.625" height="18.125" fill="#dbeafe"/><rect x="221.375" y="80" width="25.625" height="18.125" fill="#3b82f6"/>
    </g>
    <text x="140" y="170" font-family="Arial" font-size="48" fill="#0ea5e9" stroke="#fff" stroke-width="3">♞</text>
    <circle cx="83" cy="125" r="16" fill="#f59e0b" stroke="#fff59d" stroke-width="4"/><text x="83" y="131" text-anchor="middle" font-family="Arial" font-size="18" font-weight="900" fill="#fff">7</text>
    <circle cx="215" cy="198" r="16" fill="#f59e0b" stroke="#fff59d" stroke-width="4"/><text x="215" y="204" text-anchor="middle" font-family="Arial" font-size="18" font-weight="900" fill="#fff">8</text>

    <rect x="302" y="42" width="84" height="52" rx="12" fill="#f8fbff"/>
    <text x="344" y="64" text-anchor="middle" font-family="Arial" font-size="12" font-weight="900" fill="#0b2d5f">Target</text>
    <text x="344" y="87" text-anchor="middle" font-family="Arial" font-size="21" font-weight="900" fill="#2563eb">15</text>
    <rect x="302" y="110" width="84" height="52" rx="12" fill="#f8fbff"/>
    <text x="344" y="132" text-anchor="middle" font-family="Arial" font-size="12" font-weight="900" fill="#0b2d5f">Stars</text>
    <text x="344" y="155" text-anchor="middle" font-family="Arial" font-size="19" font-weight="900" fill="#16a34a">24/30</text>
    <rect x="302" y="178" width="84" height="52" rx="12" fill="#f8fbff"/>
    <text x="344" y="200" text-anchor="middle" font-family="Arial" font-size="12" font-weight="900" fill="#0b2d5f">Rank</text>
    <text x="344" y="223" text-anchor="middle" font-family="Arial" font-size="19" font-weight="900" fill="#f97316">Gold</text>

    <g transform="translate(-25,335)">
      <rect x="0" y="0" width="160" height="96" rx="18" fill="#fff" stroke="#bfdbfe" filter="url(#shadow)"/>
      <rect x="22" y="19" width="116" height="55" rx="9" fill="url(#blue)"/>
      <text x="80" y="54" text-anchor="middle" font-family="Arial" font-size="20" font-weight="900" fill="#fff">Mary</text>
      <rect x="178" y="0" width="160" height="96" rx="18" fill="#fff" stroke="#bfdbfe" filter="url(#shadow)"/>
      <rect x="200" y="19" width="116" height="55" rx="9" fill="url(#green)"/>
      <text x="258" y="54" text-anchor="middle" font-family="Arial" font-size="20" font-weight="900" fill="#fff">John</text>
      <rect x="356" y="0" width="160" height="96" rx="18" fill="#fff" stroke="#bfdbfe" filter="url(#shadow)"/>
      <rect x="378" y="19" width="116" height="55" rx="9" fill="#f97316"/>
      <text x="436" y="54" text-anchor="middle" font-family="Arial" font-size="20" font-weight="900" fill="#fff">Saleh</text>
    </g>
  </g>
</svg>