<svg width="180" height="180" viewBox="0 0 180 180" xmlns="http://www.w3.org/2000/svg">
  <defs>
    <linearGradient id="g" x1="0" x2="1" y1="0" y2="1"><stop offset="0" stop-color="#0ea5e9"/><stop offset="1" stop-color="#0f5132"/></linearGradient>
  </defs>
  <circle cx="90" cy="90" r="84" fill="#fff" stroke="#0f5132" stroke-width="5"/>
  <circle cx="90" cy="90" r="68" fill="#f8fbff" stroke="#cde7ff" stroke-width="3"/>
  <path d="M67 123h57v12H55v-12h12Zm-2-10h53c-5-13-2-24 9-34 7-7 8-18 2-26-6-9-17-11-27-4l-8 6 9 7-6 9-17-13c-3 7-7 13-13 18-7 6-11 14-12 23 0 5 3 10 10 14Z" fill="url(#g)"/>
  <circle cx="125" cy="48" r="6" fill="#facc15"/><circle cx="140" cy="73" r="5" fill="#16a34a"/><circle cx="38" cy="87" r="5" fill="#2563eb"/><circle cx="49" cy="50" r="5" fill="#ef4444"/>
  <text x="90" y="28" font-family="Arial" font-size="13" font-weight="900" text-anchor="middle" fill="#0f5132">SMART CHESS MATH</text>
  <text x="90" y="158" font-family="Arial" font-size="9" font-weight="900" text-anchor="middle" fill="#f15a24">CHESS • MATHEMATICS • LOGIC</text>
</svg>